# xmcd
#
# Track frame offsets:
#	150
#	12101
#	20330
#	30925
#	47558
#	59776
#	70743
#	90710
#	101345
#	116534
#	133176
#	150540
#	175649
#	191350
#	206320
#	214020
#	229328
#
# Disc length: 3261 seconds
#
# Revision: 0
# Processed by: cddbd v1.5.2PL0 Copyright (c) Steve Scherf et al.
# Submitted via: EZCDAudioConverter 1.3.4.1
#
DISCID=d60cbb11
DTITLE=Wendy and Bonnie - Genesis 2/2
DYEAR=1970
DGENRE=
TTITLE0=Children Laughing [Demo]
TTITLE1=Years [Demo]
TTITLE2=Popular Phrases [Demo]
TTITLE3=Eleanor Rigby [Demo]
TTITLE4=The Winter Is Cold [Demo]
TTITLE5=The Ice Cream Man Song [Demo]
TTITLE6=December Sun [Demo]
TTITLE7=Wake Up, Sleepy Eyes [Demo]
TTITLE8=We Can Work It Out [Live]
TTITLE9=Thinking, Waiting [Live]
TTITLE10=Cover Our Child [Demo]
TTITLE11=Story Of A Conventional Man [Demo]
TTITLE12=The Paisley Window Pane [Live]
TTITLE13=The Night Behind Us [Crystal Fountain Acetates, 1967]
TTITLE14=Sensations [Crystal Fountain Acetates, 1967]
TTITLE15=Never To Rest [Crystal Fountain Acetates, 1967]
TTITLE16=Children Laughing [Gratton Middle School Band and Glee Club, 1969]
EXTD=
EXTT0=
EXTT1=
EXTT2=
EXTT3=
EXTT4=
EXTT5=
EXTT6=
EXTT7=
EXTT8=
EXTT9=
EXTT10=
EXTT11=
EXTT12=
EXTT13=
EXTT14=
EXTT15=
EXTT16=
PLAYORDER=
